ply
format ascii 1.0
element vertex 76
property float x
property float y
property float z
property float nx
property float ny
property float nz
property float s
property float t
element face 44
property list uchar int vertex_index
end_header
0 0.25 0.5 0 0 1 0 1
0.3535533845424652 0.25 0.3535533845424652 0.7071067811865476 0 0.7071067811865476 0.125 1
0.5 0.25 3.0616171314629196e-17 1 0 6.123234262925839e-17 0.25 1
0.3535533845424652 0.25 -0.3535533845424652 0.7071067811865476 0 -0.7071067811865476 0.375 1
6.123234262925839e-17 0.25 -0.5 1.2246468525851679e-16 0 -1 0.5 1
-0.3535533845424652 0.25 -0.3535533845424652 -0.7071067811865476 0 -0.7071067811865476 0.625 1
-0.5 0.25 -9.184850732644269e-17 -1 0 -1.8369701465288538e-16 0.75 1
-0.3535533845424652 0.25 0.3535533845424652 -0.7071067811865476 0 0.7071067811865476 0.875 1
-1.2246468525851679e-16 0.25 0.5 -2.4492937051703357e-16 0 1 1 1
0 -0.25 0.5 0 0 1 0 0
0.3535533845424652 -0.25 0.3535533845424652 0.7071067811865476 0 0.7071067811865476 0.125 0
0.5 -0.25 3.0616171314629196e-17 1 0 6.123234262925839e-17 0.25 0
0.3535533845424652 -0.25 -0.3535533845424652 0.7071067811865476 0 -0.7071067811865476 0.375 0
6.123234262925839e-17 -0.25 -0.5 1.2246468525851679e-16 0 -1 0.5 0
-0.3535533845424652 -0.25 -0.3535533845424652 -0.7071067811865476 0 -0.7071067811865476 0.625 0
-0.5 -0.25 -9.184850732644269e-17 -1 0 -1.8369701465288538e-16 0.75 0
-0.3535533845424652 -0.25 0.3535533845424652 -0.7071067811865476 0 0.7071067811865476 0.875 0
-1.2246468525851679e-16 -0.25 0.5 -2.4492937051703357e-16 0 1 1 0
0 0.25 0 0 1 0 0.5 0.5
0 0.25 0 0 1 0 0.5 0.5
0 0.25 0 0 1 0 0.5 0.5
0 0.25 0 0 1 0 0.5 0.5
0 0.25 0 0 1 0 0.5 0.5
0 0.25 0 0 1 0 0.5 0.5
0 0.25 0 0 1 0 0.5 0.5
0 0.25 0 0 1 0 0.5 0.5
0 0.25 0.5 0 1 0 1 0.5
0.3535533845424652 0.25 0.3535533845424652 0 1 0 0.8535534143447876 0.8535534143447876
0.5 0.25 3.0616171314629196e-17 0 1 0 0.5 1
0.3535533845424652 0.25 -0.3535533845424652 0 1 0 0.1464466154575348 0.8535534143447876
6.123234262925839e-17 0.25 -0.5 0 1 0 0 0.5
-0.3535533845424652 0.25 -0.3535533845424652 0 1 0 0.1464466154575348 0.1464466154575348
-0.5 0.25 -9.184850732644269e-17 0 1 0 0.5 0
-0.3535533845424652 0.25 0.3535533845424652 0 1 0 0.8535534143447876 0.1464466154575348
-1.2246468525851679e-16 0.25 0.5 0 1 0 1 0.5
0 -0.25 0 0 -1 0 0.5 0.5
0 -0.25 0 0 -1 0 0.5 0.5
0 -0.25 0 0 -1 0 0.5 0.5
0 -0.25 0 0 -1 0 0.5 0.5
0 -0.25 0 0 -1 0 0.5 0.5
0 -0.25 0 0 -1 0 0.5 0.5
0 -0.25 0 0 -1 0 0.5 0.5
0 -0.25 0 0 -1 0 0.5 0.5
0 -0.25 0.5 0 -1 0 1 0.5
0.3535533845424652 -0.25 0.3535533845424652 0 -1 0 0.8535534143447876 0.1464466154575348
0.5 -0.25 3.0616171314629196e-17 0 -1 0 0.5 0
0.3535533845424652 -0.25 -0.3535533845424652 0 -1 0 0.1464466154575348 0.1464466154575348
6.123234262925839e-17 -0.25 -0.5 0 -1 0 0 0.5
-0.3535533845424652 -0.25 -0.3535533845424652 0 -1 0 0.1464466154575348 0.8535534143447876
-0.5 -0.25 -9.184850732644269e-17 0 -1 0 0.5 1
-0.3535533845424652 -0.25 0.3535533845424652 0 -1 0 0.8535534143447876 0.8535534143447876
-1.2246468525851679e-16 -0.25 0.5 0 -1 0 1 0.5
0.5 0.5 0.5 1 0 0 0 1
0.5 0.5 -0.5 1 0 0 1 1
0.5 -0.5 0.5 1 0 0 0 0
0.5 -0.5 -0.5 1 0 0 1 0
-0.5 0.5 -0.5 -1 0 0 0 1
-0.5 0.5 0.5 -1 0 0 1 1
-0.5 -0.5 -0.5 -1 0 0 0 0
-0.5 -0.5 0.5 -1 0 0 1 0
-0.5 0.5 -0.5 0 1 0 0 1
0.5 0.5 -0.5 0 1 0 1 1
-0.5 0.5 0.5 0 1 0 0 0
0.5 0.5 0.5 0 1 0 1 0
-0.5 -0.5 0.5 0 -1 0 0 1
0.5 -0.5 0.5 0 -1 0 1 1
-0.5 -0.5 -0.5 0 -1 0 0 0
0.5 -0.5 -0.5 0 -1 0 1 0
-0.5 0.5 0.5 0 0 1 0 1
0.5 0.5 0.5 0 0 1 1 1
-0.5 -0.5 0.5 0 0 1 0 0
0.5 -0.5 0.5 0 0 1 1 0
0.5 0.5 -0.5 0 0 -1 0 1
-0.5 0.5 -0.5 0 0 -1 1 1
0.5 -0.5 -0.5 0 0 -1 0 0
-0.5 -0.5 -0.5 0 0 -1 1 0
3 0 9 1
3 9 10 1
3 1 10 2
3 10 11 2
3 2 11 3
3 11 12 3
3 3 12 4
3 12 13 4
3 4 13 5
3 13 14 5
3 5 14 6
3 14 15 6
3 6 15 7
3 15 16 7
3 7 16 8
3 16 17 8
3 26 27 18
3 27 28 19
3 28 29 20
3 29 30 21
3 30 31 22
3 31 32 23
3 32 33 24
3 33 34 25
3 44 43 35
3 45 44 36
3 46 45 37
3 47 46 38
3 48 47 39
3 49 48 40
3 50 49 41
3 51 50 42
3 52 54 53
3 54 55 53
3 56 58 57
3 58 59 57
3 60 62 61
3 62 63 61
3 64 66 65
3 66 67 65
3 68 70 69
3 70 71 69
3 72 74 73
3 74 75 73
