solid exported
	facet normal 0.38268345145128857 0 0.9238795246055241
		outer loop
			vertex 0 0.25 0.5
			vertex 0 -0.25 0.5
			vertex 0.3535533845424652 0.25 0.3535533845424652
		endloop
	endfacet
	facet normal 0.38268345145128857 0 0.9238795246055241
		outer loop
			vertex 0 -0.25 0.5
			vertex 0.3535533845424652 -0.25 0.3535533845424652
			vertex 0.3535533845424652 0.25 0.3535533845424652
		endloop
	endfacet
	facet normal 0.9238795246055241 0 0.3826834514512886
		outer loop
			vertex 0.3535533845424652 0.25 0.3535533845424652
			vertex 0.3535533845424652 -0.25 0.3535533845424652
			vertex 0.5 0.25 3.0616171314629196e-17
		endloop
	endfacet
	facet normal 0.9238795246055241 0 0.3826834514512886
		outer loop
			vertex 0.3535533845424652 -0.25 0.3535533845424652
			vertex 0.5 -0.25 3.0616171314629196e-17
			vertex 0.5 0.25 3.0616171314629196e-17
		endloop
	endfacet
	facet normal 0.9238795246055241 0 -0.3826834514512885
		outer loop
			vertex 0.5 0.25 3.0616171314629196e-17
			vertex 0.5 -0.25 3.0616171314629196e-17
			vertex 0.3535533845424652 0.25 -0.3535533845424652
		endloop
	endfacet
	facet normal 0.9238795246055241 0 -0.3826834514512885
		outer loop
			vertex 0.5 -0.25 3.0616171314629196e-17
			vertex 0.3535533845424652 -0.25 -0.3535533845424652
			vertex 0.3535533845424652 0.25 -0.3535533845424652
		endloop
	endfacet
	facet normal 0.3826834514512886 0 -0.9238795246055241
		outer loop
			vertex 0.3535533845424652 0.25 -0.3535533845424652
			vertex 0.3535533845424652 -0.25 -0.3535533845424652
			vertex 6.123234262925839e-17 0.25 -0.5
		endloop
	endfacet
	facet normal 0.3826834514512886 0 -0.9238795246055241
		outer loop
			vertex 0.3535533845424652 -0.25 -0.3535533845424652
			vertex 6.123234262925839e-17 -0.25 -0.5
			vertex 6.123234262925839e-17 0.25 -0.5
		endloop
	endfacet
	facet normal -0.3826834514512885 0 -0.9238795246055241
		outer loop
			vertex 6.123234262925839e-17 0.25 -0.5
			vertex 6.123234262925839e-17 -0.25 -0.5
			vertex -0.3535533845424652 0.25 -0.3535533845424652
		endloop
	endfacet
	facet normal -0.3826834514512885 0 -0.9238795246055241
		outer loop
			vertex 6.123234262925839e-17 -0.25 -0.5
			vertex -0.3535533845424652 -0.25 -0.3535533845424652
			vertex -0.3535533845424652 0.25 -0.3535533845424652
		endloop
	endfacet
	facet normal -0.9238795246055241 0 -0.3826834514512887
		outer loop
			vertex -0.3535533845424652 0.25 -0.3535533845424652
			vertex -0.3535533845424652 -0.25 -0.3535533845424652
			vertex -0.5 0.25 -9.184850732644269e-17
		endloop
	endfacet
	facet normal -0.9238795246055241 0 -0.3826834514512887
		outer loop
			vertex -0.3535533845424652 -0.25 -0.3535533845424652
			vertex -0.5 -0.25 -9.184850732644269e-17
			vertex -0.5 0.25 -9.184850732644269e-17
		endloop
	endfacet
	facet normal -0.9238795246055241 0 0.38268345145128846
		outer loop
			vertex -0.5 0.25 -9.184850732644269e-17
			vertex -0.5 -0.25 -9.184850732644269e-17
			vertex -0.3535533845424652 0.25 0.3535533845424652
		endloop
	endfacet
	facet normal -0.9238795246055241 0 0.38268345145128846
		outer loop
			vertex -0.5 -0.25 -9.184850732644269e-17
			vertex -0.3535533845424652 -0.25 0.3535533845424652
			vertex -0.3535533845424652 0.25 0.3535533845424652
		endloop
	endfacet
	facet normal -0.3826834514512887 0 0.9238795246055241
		outer loop
			vertex -0.3535533845424652 0.25 0.3535533845424652
			vertex -0.3535533845424652 -0.25 0.3535533845424652
			vertex -1.2246468525851679e-16 0.25 0.5
		endloop
	endfacet
	facet normal -0.3826834514512887 0 0.9238795246055241
		outer loop
			vertex -0.3535533845424652 -0.25 0.3535533845424652
			vertex -1.2246468525851679e-16 -0.25 0.5
			vertex -1.2246468525851679e-16 0.25 0.5
		endloop
	endfacet
	facet normal 0 1 0
		outer loop
			vertex 0 0.25 0.5
			vertex 0.3535533845424652 0.25 0.3535533845424652
			vertex 0 0.25 0
		endloop
	endfacet
	facet normal 0 1 0
		outer loop
			vertex 0.3535533845424652 0.25 0.3535533845424652
			vertex 0.5 0.25 3.0616171314629196e-17
			vertex 0 0.25 0
		endloop
	endfacet
	facet normal 0 1 0
		outer loop
			vertex 0.5 0.25 3.0616171314629196e-17
			vertex 0.3535533845424652 0.25 -0.3535533845424652
			vertex 0 0.25 0
		endloop
	endfacet
	facet normal 0 1 0
		outer loop
			vertex 0.3535533845424652 0.25 -0.3535533845424652
			vertex 6.123234262925839e-17 0.25 -0.5
			vertex 0 0.25 0
		endloop
	endfacet
	facet normal 0 1 0
		outer loop
			vertex 6.123234262925839e-17 0.25 -0.5
			vertex -0.3535533845424652 0.25 -0.3535533845424652
			vertex 0 0.25 0
		endloop
	endfacet
	facet normal 0 1 0
		outer loop
			vertex -0.3535533845424652 0.25 -0.3535533845424652
			vertex -0.5 0.25 -9.184850732644269e-17
			vertex 0 0.25 0
		endloop
	endfacet
	facet normal 0 1 0
		outer loop
			vertex -0.5 0.25 -9.184850732644269e-17
			vertex -0.3535533845424652 0.25 0.3535533845424652
			vertex 0 0.25 0
		endloop
	endfacet
	facet normal 0 1 0
		outer loop
			vertex -0.3535533845424652 0.25 0.3535533845424652
			vertex -1.2246468525851679e-16 0.25 0.5
			vertex 0 0.25 0
		endloop
	endfacet
	facet normal 0 -1 0
		outer loop
			vertex 0.3535533845424652 -0.25 0.3535533845424652
			vertex 0 -0.25 0.5
			vertex 0 -0.25 0
		endloop
	endfacet
	facet normal 0 -1 0
		outer loop
			vertex 0.5 -0.25 3.0616171314629196e-17
			vertex 0.3535533845424652 -0.25 0.3535533845424652
			vertex 0 -0.25 0
		endloop
	endfacet
	facet normal 0 -1 0
		outer loop
			vertex 0.3535533845424652 -0.25 -0.3535533845424652
			vertex 0.5 -0.25 3.0616171314629196e-17
			vertex 0 -0.25 0
		endloop
	endfacet
	facet normal 0 -1 0
		outer loop
			vertex 6.123234262925839e-17 -0.25 -0.5
			vertex 0.3535533845424652 -0.25 -0.3535533845424652
			vertex 0 -0.25 0
		endloop
	endfacet
	facet normal 0 -1 0
		outer loop
			vertex -0.3535533845424652 -0.25 -0.3535533845424652
			vertex 6.123234262925839e-17 -0.25 -0.5
			vertex 0 -0.25 0
		endloop
	endfacet
	facet normal 0 -1 0
		outer loop
			vertex -0.5 -0.25 -9.184850732644269e-17
			vertex -0.3535533845424652 -0.25 -0.3535533845424652
			vertex 0 -0.25 0
		endloop
	endfacet
	facet normal 0 -1 0
		outer loop
			vertex -0.3535533845424652 -0.25 0.3535533845424652
			vertex -0.5 -0.25 -9.184850732644269e-17
			vertex 0 -0.25 0
		endloop
	endfacet
	facet normal 0 -1 0
		outer loop
			vertex -1.2246468525851679e-16 -0.25 0.5
			vertex -0.3535533845424652 -0.25 0.3535533845424652
			vertex 0 -0.25 0
		endloop
	endfacet
	facet normal 1 0 0
		outer loop
			vertex 1 0.30000000149011613 0.25
			vertex 1 0.09999999850988389 0.25
			vertex 1 0.30000000149011613 -0.25
		endloop
	endfacet
	facet normal 1 0 0
		outer loop
			vertex 1 0.09999999850988389 0.25
			vertex 1 0.09999999850988389 -0.25
			vertex 1 0.30000000149011613 -0.25
		endloop
	endfacet
	facet normal -1 0 0
		outer loop
			vertex 0 0.30000000149011613 -0.25
			vertex 0 0.09999999850988389 -0.25
			vertex 0 0.30000000149011613 0.25
		endloop
	endfacet
	facet normal -1 0 0
		outer loop
			vertex 0 0.09999999850988389 -0.25
			vertex 0 0.09999999850988389 0.25
			vertex 0 0.30000000149011613 0.25
		endloop
	endfacet
	facet normal 0 1 0
		outer loop
			vertex 0 0.30000000149011613 -0.25
			vertex 0 0.30000000149011613 0.25
			vertex 1 0.30000000149011613 -0.25
		endloop
	endfacet
	facet normal 0 1 0
		outer loop
			vertex 0 0.30000000149011613 0.25
			vertex 1 0.30000000149011613 0.25
			vertex 1 0.30000000149011613 -0.25
		endloop
	endfacet
	facet normal 0 -1 0
		outer loop
			vertex 0 0.09999999850988389 0.25
			vertex 0 0.09999999850988389 -0.25
			vertex 1 0.09999999850988389 0.25
		endloop
	endfacet
	facet normal 0 -1 0
		outer loop
			vertex 0 0.09999999850988389 -0.25
			vertex 1 0.09999999850988389 -0.25
			vertex 1 0.09999999850988389 0.25
		endloop
	endfacet
	facet normal 0 0 1
		outer loop
			vertex 0 0.30000000149011613 0.25
			vertex 0 0.09999999850988389 0.25
			vertex 1 0.30000000149011613 0.25
		endloop
	endfacet
	facet normal 0 0 1
		outer loop
			vertex 0 0.09999999850988389 0.25
			vertex 1 0.09999999850988389 0.25
			vertex 1 0.30000000149011613 0.25
		endloop
	endfacet
	facet normal 0 0 -1
		outer loop
			vertex 1 0.30000000149011613 -0.25
			vertex 1 0.09999999850988389 -0.25
			vertex 0 0.30000000149011613 -0.25
		endloop
	endfacet
	facet normal 0 0 -1
		outer loop
			vertex 1 0.09999999850988389 -0.25
			vertex 0 0.09999999850988389 -0.25
			vertex 0 0.30000000149011613 -0.25
		endloop
	endfacet
	facet normal 0.5773502691896257 0.5773502691896257 0.5773502691896257
		outer loop
			vertex 0 0.9000000059604645 0
			vertex 0 0.5 0.4000000059604645
			vertex 0.4000000059604645 0.5 0
		endloop
	endfacet
	facet normal 0.5773502691896257 -0.5773502691896257 0.5773502691896257
		outer loop
			vertex 0 0.5 0.4000000059604645
			vertex 0 0.09999999403953552 0
			vertex 0.4000000059604645 0.5 0
		endloop
	endfacet
	facet normal 0.5773502691896257 -0.5773502691896257 -0.5773502691896257
		outer loop
			vertex 0 0.09999999403953552 0
			vertex 0 0.5 -0.4000000059604645
			vertex 0.4000000059604645 0.5 0
		endloop
	endfacet
	facet normal 0.5773502691896257 0.5773502691896257 -0.5773502691896257
		outer loop
			vertex 0 0.5 -0.4000000059604645
			vertex 0 0.9000000059604645 0
			vertex 0.4000000059604645 0.5 0
		endloop
	endfacet
	facet normal -0.5773502691896257 0.5773502691896257 -0.5773502691896257
		outer loop
			vertex 0 0.9000000059604645 0
			vertex 0 0.5 -0.4000000059604645
			vertex -0.4000000059604645 0.5 0
		endloop
	endfacet
	facet normal -0.5773502691896257 -0.5773502691896257 -0.5773502691896257
		outer loop
			vertex 0 0.5 -0.4000000059604645
			vertex 0 0.09999999403953552 0
			vertex -0.4000000059604645 0.5 0
		endloop
	endfacet
	facet normal -0.5773502691896257 -0.5773502691896257 0.5773502691896257
		outer loop
			vertex 0 0.09999999403953552 0
			vertex 0 0.5 0.4000000059604645
			vertex -0.4000000059604645 0.5 0
		endloop
	endfacet
	facet normal -0.5773502691896257 0.5773502691896257 0.5773502691896257
		outer loop
			vertex 0 0.5 0.4000000059604645
			vertex 0 0.9000000059604645 0
			vertex -0.4000000059604645 0.5 0
		endloop
	endfacet
endsolid exported