solid exported
	facet normal 0.3826834326500641 0 0.9238795323932466
		outer loop
			vertex 0 2.5 5
			vertex 0 -2.5 5
			vertex 3.535533905029297 2.5 3.535533905029297
		endloop
	endfacet
	facet normal 0.3826834326500641 0 0.9238795323932466
		outer loop
			vertex 0 -2.5 5
			vertex 3.535533905029297 -2.5 3.535533905029297
			vertex 3.535533905029297 2.5 3.535533905029297
		endloop
	endfacet
	facet normal 0.9238795323932465 0 0.38268343265006416
		outer loop
			vertex 3.535533905029297 2.5 3.535533905029297
			vertex 3.535533905029297 -2.5 3.535533905029297
			vertex 5 2.5 3.0616169991140216e-16
		endloop
	endfacet
	facet normal 0.9238795323932465 0 0.38268343265006416
		outer loop
			vertex 3.535533905029297 -2.5 3.535533905029297
			vertex 5 -2.5 3.0616169991140216e-16
			vertex 5 2.5 3.0616169991140216e-16
		endloop
	endfacet
	facet normal 0.9238795323932467 0 -0.3826834326500641
		outer loop
			vertex 5 2.5 3.0616169991140216e-16
			vertex 5 -2.5 3.0616169991140216e-16
			vertex 3.535533905029297 2.5 -3.535533905029297
		endloop
	endfacet
	facet normal 0.9238795323932467 0 -0.3826834326500641
		outer loop
			vertex 5 -2.5 3.0616169991140216e-16
			vertex 3.535533905029297 -2.5 -3.535533905029297
			vertex 3.535533905029297 2.5 -3.535533905029297
		endloop
	endfacet
	facet normal 0.38268343265006416 0 -0.9238795323932465
		outer loop
			vertex 3.535533905029297 2.5 -3.535533905029297
			vertex 3.535533905029297 -2.5 -3.535533905029297
			vertex 6.123233998228043e-16 2.5 -5
		endloop
	endfacet
	facet normal 0.38268343265006416 0 -0.9238795323932465
		outer loop
			vertex 3.535533905029297 -2.5 -3.535533905029297
			vertex 6.123233998228043e-16 -2.5 -5
			vertex 6.123233998228043e-16 2.5 -5
		endloop
	endfacet
	facet normal -0.3826834326500641 0 -0.9238795323932467
		outer loop
			vertex 6.123233998228043e-16 2.5 -5
			vertex 6.123233998228043e-16 -2.5 -5
			vertex -3.535533905029297 2.5 -3.535533905029297
		endloop
	endfacet
	facet normal -0.3826834326500641 0 -0.9238795323932467
		outer loop
			vertex 6.123233998228043e-16 -2.5 -5
			vertex -3.535533905029297 -2.5 -3.535533905029297
			vertex -3.535533905029297 2.5 -3.535533905029297
		endloop
	endfacet
	facet normal -0.9238795323932465 0 -0.38268343265006416
		outer loop
			vertex -3.535533905029297 2.5 -3.535533905029297
			vertex -3.535533905029297 -2.5 -3.535533905029297
			vertex -5 2.5 -9.184850467946473e-16
		endloop
	endfacet
	facet normal -0.9238795323932465 0 -0.38268343265006416
		outer loop
			vertex -3.535533905029297 -2.5 -3.535533905029297
			vertex -5 -2.5 -9.184850467946473e-16
			vertex -5 2.5 -9.184850467946473e-16
		endloop
	endfacet
	facet normal -0.9238795323932467 0 0.3826834326500641
		outer loop
			vertex -5 2.5 -9.184850467946473e-16
			vertex -5 -2.5 -9.184850467946473e-16
			vertex -3.535533905029297 2.5 3.535533905029297
		endloop
	endfacet
	facet normal -0.9238795323932467 0 0.3826834326500641
		outer loop
			vertex -5 -2.5 -9.184850467946473e-16
			vertex -3.535533905029297 -2.5 3.535533905029297
			vertex -3.535533905029297 2.5 3.535533905029297
		endloop
	endfacet
	facet normal -0.38268343265006427 0 0.9238795323932466
		outer loop
			vertex -3.535533905029297 2.5 3.535533905029297
			vertex -3.535533905029297 -2.5 3.535533905029297
			vertex -1.2246467996456087e-15 2.5 5
		endloop
	endfacet
	facet normal -0.38268343265006427 0 0.9238795323932466
		outer loop
			vertex -3.535533905029297 -2.5 3.535533905029297
			vertex -1.2246467996456087e-15 -2.5 5
			vertex -1.2246467996456087e-15 2.5 5
		endloop
	endfacet
	facet normal 0 1 0
		outer loop
			vertex 0 2.5 5
			vertex 3.535533905029297 2.5 3.535533905029297
			vertex 0 2.5 0
		endloop
	endfacet
	facet normal 0 1 0
		outer loop
			vertex 3.535533905029297 2.5 3.535533905029297
			vertex 5 2.5 3.0616169991140216e-16
			vertex 0 2.5 0
		endloop
	endfacet
	facet normal 0 1 0
		outer loop
			vertex 5 2.5 3.0616169991140216e-16
			vertex 3.535533905029297 2.5 -3.535533905029297
			vertex 0 2.5 0
		endloop
	endfacet
	facet normal 0 1 0
		outer loop
			vertex 3.535533905029297 2.5 -3.535533905029297
			vertex 6.123233998228043e-16 2.5 -5
			vertex 0 2.5 0
		endloop
	endfacet
	facet normal 0 1 0
		outer loop
			vertex 6.123233998228043e-16 2.5 -5
			vertex -3.535533905029297 2.5 -3.535533905029297
			vertex 0 2.5 0
		endloop
	endfacet
	facet normal 0 1 0
		outer loop
			vertex -3.535533905029297 2.5 -3.535533905029297
			vertex -5 2.5 -9.184850467946473e-16
			vertex 0 2.5 0
		endloop
	endfacet
	facet normal 0 1 0
		outer loop
			vertex -5 2.5 -9.184850467946473e-16
			vertex -3.535533905029297 2.5 3.535533905029297
			vertex 0 2.5 0
		endloop
	endfacet
	facet normal 0 1 0
		outer loop
			vertex -3.535533905029297 2.5 3.535533905029297
			vertex -1.2246467996456087e-15 2.5 5
			vertex 0 2.5 0
		endloop
	endfacet
	facet normal 0 -1 0
		outer loop
			vertex 3.535533905029297 -2.5 3.535533905029297
			vertex 0 -2.5 5
			vertex 0 -2.5 0
		endloop
	endfacet
	facet normal 0 -1 0
		outer loop
			vertex 5 -2.5 3.0616169991140216e-16
			vertex 3.535533905029297 -2.5 3.535533905029297
			vertex 0 -2.5 0
		endloop
	endfacet
	facet normal 0 -1 0
		outer loop
			vertex 3.535533905029297 -2.5 -3.535533905029297
			vertex 5 -2.5 3.0616169991140216e-16
			vertex 0 -2.5 0
		endloop
	endfacet
	facet normal 0 -1 0
		outer loop
			vertex 6.123233998228043e-16 -2.5 -5
			vertex 3.535533905029297 -2.5 -3.535533905029297
			vertex 0 -2.5 0
		endloop
	endfacet
	facet normal 0 -1 0
		outer loop
			vertex -3.535533905029297 -2.5 -3.535533905029297
			vertex 6.123233998228043e-16 -2.5 -5
			vertex 0 -2.5 0
		endloop
	endfacet
	facet normal 0 -1 0
		outer loop
			vertex -5 -2.5 -9.184850467946473e-16
			vertex -3.535533905029297 -2.5 -3.535533905029297
			vertex 0 -2.5 0
		endloop
	endfacet
	facet normal 0 -1 0
		outer loop
			vertex -3.535533905029297 -2.5 3.535533905029297
			vertex -5 -2.5 -9.184850467946473e-16
			vertex 0 -2.5 0
		endloop
	endfacet
	facet normal 0 -1 0
		outer loop
			vertex -1.2246467996456087e-15 -2.5 5
			vertex -3.535533905029297 -2.5 3.535533905029297
			vertex 0 -2.5 0
		endloop
	endfacet
	facet normal 1 0 0
		outer loop
			vertex 8 -0.5 5.5
			vertex 8 -2.5 5.5
			vertex 8 -0.5 0.5
		endloop
	endfacet
	facet normal 1 0 0
		outer loop
			vertex 8 -2.5 5.5
			vertex 8 -2.5 0.5
			vertex 8 -0.5 0.5
		endloop
	endfacet
	facet normal -1 0 0
		outer loop
			vertex 2 -0.5 0.5
			vertex 2 -2.5 0.5
			vertex 2 -0.5 5.5
		endloop
	endfacet
	facet normal -1 0 0
		outer loop
			vertex 2 -2.5 0.5
			vertex 2 -2.5 5.5
			vertex 2 -0.5 5.5
		endloop
	endfacet
	facet normal 0 1 0
		outer loop
			vertex 2 -0.5 0.5
			vertex 2 -0.5 5.5
			vertex 8 -0.5 0.5
		endloop
	endfacet
	facet normal 0 1 0
		outer loop
			vertex 2 -0.5 5.5
			vertex 8 -0.5 5.5
			vertex 8 -0.5 0.5
		endloop
	endfacet
	facet normal 0 -1 0
		outer loop
			vertex 2 -2.5 5.5
			vertex 2 -2.5 0.5
			vertex 8 -2.5 5.5
		endloop
	endfacet
	facet normal 0 -1 0
		outer loop
			vertex 2 -2.5 0.5
			vertex 8 -2.5 0.5
			vertex 8 -2.5 5.5
		endloop
	endfacet
	facet normal 0 0 1
		outer loop
			vertex 2 -0.5 5.5
			vertex 2 -2.5 5.5
			vertex 8 -0.5 5.5
		endloop
	endfacet
	facet normal 0 0 1
		outer loop
			vertex 2 -2.5 5.5
			vertex 8 -2.5 5.5
			vertex 8 -0.5 5.5
		endloop
	endfacet
	facet normal 0 0 -1
		outer loop
			vertex 8 -0.5 0.5
			vertex 8 -2.5 0.5
			vertex 2 -0.5 0.5
		endloop
	endfacet
	facet normal 0 0 -1
		outer loop
			vertex 8 -2.5 0.5
			vertex 2 -2.5 0.5
			vertex 2 -0.5 0.5
		endloop
	endfacet
	facet normal 0.5773502691896258 0.5773502691896258 0.5773502691896258
		outer loop
			vertex 0 7 -1
			vertex 0 3 3
			vertex 4 3 -1
		endloop
	endfacet
	facet normal 0.5773502691896258 -0.5773502691896258 0.5773502691896258
		outer loop
			vertex 0 3 3
			vertex 0 -1 -1
			vertex 4 3 -1
		endloop
	endfacet
	facet normal 0.5773502691896258 -0.5773502691896258 -0.5773502691896258
		outer loop
			vertex 0 -1 -1
			vertex 0 3 -5
			vertex 4 3 -1
		endloop
	endfacet
	facet normal 0.5773502691896258 0.5773502691896258 -0.5773502691896258
		outer loop
			vertex 0 3 -5
			vertex 0 7 -1
			vertex 4 3 -1
		endloop
	endfacet
	facet normal -0.5773502691896258 0.5773502691896258 -0.5773502691896258
		outer loop
			vertex 0 7 -1
			vertex 0 3 -5
			vertex -4 3 -1
		endloop
	endfacet
	facet normal -0.5773502691896258 -0.5773502691896258 -0.5773502691896258
		outer loop
			vertex 0 3 -5
			vertex 0 -1 -1
			vertex -4 3 -1
		endloop
	endfacet
	facet normal -0.5773502691896258 -0.5773502691896258 0.5773502691896258
		outer loop
			vertex 0 -1 -1
			vertex 0 3 3
			vertex -4 3 -1
		endloop
	endfacet
	facet normal -0.5773502691896258 0.5773502691896258 0.5773502691896258
		outer loop
			vertex 0 3 3
			vertex 0 7 -1
			vertex -4 3 -1
		endloop
	endfacet
endsolid exported